<mxfile host="app.diagrams.net" modified="2023-11-04T12:55:33.259Z" agent="Mozilla/5.0 (Macintosh; Intel Mac OS X 10_15_7) AppleWebKit/537.36 (KHTML, like Gecko) Chrome/117.0.0.0 Safari/537.36" etag="6Bto5ELhp1gqanfUXvfh" version="22.0.8" type="github">
  <diagram name="Page-1" id="d61cFQMUThN0K3jyABDj">
    <mxGraphModel dx="1004" dy="1786" grid="1" gridSize="10" guides="1" tooltips="1" connect="1" arrows="1" fold="1" page="1" pageScale="1" pageWidth="850" pageHeight="1100" math="0" shadow="0">
      <root>
        <mxCell id="0" />
        <mxCell id="1" parent="0" />
        <mxCell id="mptU31HQFR-m2cuub4Bu-2" value="explorer call" style="rounded=1;whiteSpace=wrap;html=1;fontSize=12;glass=0;strokeWidth=1;shadow=0;fillColor=#ffe6cc;strokeColor=#d79b00;" vertex="1" parent="1">
          <mxGeometry x="90" y="50" width="120" height="32.2" as="geometry" />
        </mxCell>
        <mxCell id="mptU31HQFR-m2cuub4Bu-3" value="rpc call" style="rounded=1;whiteSpace=wrap;html=1;fontSize=12;glass=0;strokeWidth=1;shadow=0;fillColor=#dae8fc;strokeColor=#6c8ebf;" vertex="1" parent="1">
          <mxGeometry x="90" y="90" width="108.12" height="32.2" as="geometry" />
        </mxCell>
        <mxCell id="mptU31HQFR-m2cuub4Bu-4" value="git call" style="rounded=1;whiteSpace=wrap;html=1;fontSize=12;glass=0;strokeWidth=1;shadow=0;fillColor=#d5e8d4;strokeColor=#82b366;" vertex="1" parent="1">
          <mxGeometry x="90" y="10" width="108.12" height="32.2" as="geometry" />
        </mxCell>
        <mxCell id="mptU31HQFR-m2cuub4Bu-5" value="db call" style="rounded=1;whiteSpace=wrap;html=1;fontSize=12;glass=0;strokeWidth=1;shadow=0;fillColor=#e1d5e7;strokeColor=#9673a6;" vertex="1" parent="1">
          <mxGeometry x="90" y="130" width="108.12" height="32.2" as="geometry" />
        </mxCell>
        <mxCell id="mptU31HQFR-m2cuub4Bu-6" value="beefy api call" style="rounded=1;whiteSpace=wrap;html=1;fontSize=12;glass=0;strokeWidth=1;shadow=0;fillColor=#f8cecc;strokeColor=#b85450;" vertex="1" parent="1">
          <mxGeometry x="90" y="170" width="120" height="32.2" as="geometry" />
        </mxCell>
        <mxCell id="mptU31HQFR-m2cuub4Bu-7" value="thegraph call" style="rounded=1;whiteSpace=wrap;html=1;fontSize=12;glass=0;strokeWidth=1;shadow=0;fillColor=#fff2cc;strokeColor=#d6b656;" vertex="1" parent="1">
          <mxGeometry x="90" y="211.5" width="120" height="32.2" as="geometry" />
        </mxCell>
        <mxCell id="mptU31HQFR-m2cuub4Bu-27" value="Archive every raw data source" style="swimlane;whiteSpace=wrap;html=1;" vertex="1" parent="1">
          <mxGeometry x="380" y="-230" width="1380" height="530" as="geometry">
            <mxRectangle x="380" y="-230" width="80" height="30" as="alternateBounds" />
          </mxGeometry>
        </mxCell>
        <mxCell id="mptU31HQFR-m2cuub4Bu-36" style="edgeStyle=orthogonalEdgeStyle;rounded=0;orthogonalLoop=1;jettySize=auto;html=1;exitX=1;exitY=0.5;exitDx=0;exitDy=0;entryX=0;entryY=0.5;entryDx=0;entryDy=0;jumpStyle=arc;jumpSize=12;" edge="1" parent="mptU31HQFR-m2cuub4Bu-27" target="mptU31HQFR-m2cuub4Bu-31">
          <mxGeometry relative="1" as="geometry">
            <mxPoint x="250" y="358" as="targetPoint" />
            <mxPoint x="150" y="297.75" as="sourcePoint" />
          </mxGeometry>
        </mxCell>
        <mxCell id="mptU31HQFR-m2cuub4Bu-37" style="edgeStyle=orthogonalEdgeStyle;rounded=0;orthogonalLoop=1;jettySize=auto;html=1;exitX=1;exitY=0.5;exitDx=0;exitDy=0;jumpStyle=arc;jumpSize=12;" edge="1" parent="mptU31HQFR-m2cuub4Bu-27" target="mptU31HQFR-m2cuub4Bu-32">
          <mxGeometry relative="1" as="geometry">
            <mxPoint x="310" y="298.25000000000045" as="sourcePoint" />
          </mxGeometry>
        </mxCell>
        <mxCell id="mptU31HQFR-m2cuub4Bu-38" style="edgeStyle=orthogonalEdgeStyle;rounded=0;orthogonalLoop=1;jettySize=auto;html=1;exitX=1;exitY=0.5;exitDx=0;exitDy=0;exitPerimeter=0;jumpStyle=arc;jumpSize=12;" edge="1" parent="mptU31HQFR-m2cuub4Bu-27" target="mptU31HQFR-m2cuub4Bu-33">
          <mxGeometry relative="1" as="geometry">
            <mxPoint x="470" y="298.25000000000045" as="sourcePoint" />
          </mxGeometry>
        </mxCell>
        <mxCell id="mptU31HQFR-m2cuub4Bu-11" value="Any raw source" style="rounded=1;whiteSpace=wrap;html=1;" vertex="1" parent="mptU31HQFR-m2cuub4Bu-27">
          <mxGeometry x="90" y="322.20000000000005" width="120" height="60" as="geometry" />
        </mxCell>
        <mxCell id="mptU31HQFR-m2cuub4Bu-17" value="raw data stream" style="shape=cylinder3;whiteSpace=wrap;html=1;boundedLbl=1;backgroundOutline=1;size=8.5;rotation=90;fillColor=#ffe6cc;horizontal=0;strokeColor=#d79b00;" vertex="1" parent="mptU31HQFR-m2cuub4Bu-27">
          <mxGeometry x="390" y="237.2" width="30" height="230" as="geometry" />
        </mxCell>
        <mxCell id="mptU31HQFR-m2cuub4Bu-18" style="edgeStyle=orthogonalEdgeStyle;rounded=0;orthogonalLoop=1;jettySize=auto;html=1;exitX=1;exitY=0.5;exitDx=0;exitDy=0;entryX=0.5;entryY=1;entryDx=0;entryDy=0;entryPerimeter=0;" edge="1" parent="mptU31HQFR-m2cuub4Bu-27" source="mptU31HQFR-m2cuub4Bu-11" target="mptU31HQFR-m2cuub4Bu-17">
          <mxGeometry relative="1" as="geometry" />
        </mxCell>
        <mxCell id="mptU31HQFR-m2cuub4Bu-19" value="Raw data archives" style="shape=cylinder3;whiteSpace=wrap;html=1;boundedLbl=1;backgroundOutline=1;size=15;" vertex="1" parent="mptU31HQFR-m2cuub4Bu-27">
          <mxGeometry x="705" y="136.09999999999997" width="120" height="113.9" as="geometry" />
        </mxCell>
        <mxCell id="mptU31HQFR-m2cuub4Bu-22" style="edgeStyle=orthogonalEdgeStyle;rounded=0;orthogonalLoop=1;jettySize=auto;html=1;exitX=0.5;exitY=0;exitDx=0;exitDy=0;exitPerimeter=0;entryX=0;entryY=0.5;entryDx=0;entryDy=0;entryPerimeter=0;curved=1;" edge="1" parent="mptU31HQFR-m2cuub4Bu-27" source="mptU31HQFR-m2cuub4Bu-17" target="mptU31HQFR-m2cuub4Bu-19">
          <mxGeometry relative="1" as="geometry" />
        </mxCell>
        <mxCell id="mptU31HQFR-m2cuub4Bu-24" value="Further processing" style="rounded=1;whiteSpace=wrap;html=1;" vertex="1" parent="mptU31HQFR-m2cuub4Bu-27">
          <mxGeometry x="705" y="322.20000000000005" width="120" height="60" as="geometry" />
        </mxCell>
        <mxCell id="mptU31HQFR-m2cuub4Bu-23" style="edgeStyle=orthogonalEdgeStyle;rounded=0;orthogonalLoop=1;jettySize=auto;html=1;exitX=0.5;exitY=0;exitDx=0;exitDy=0;exitPerimeter=0;entryX=0;entryY=0.5;entryDx=0;entryDy=0;" edge="1" parent="mptU31HQFR-m2cuub4Bu-27" source="mptU31HQFR-m2cuub4Bu-17" target="mptU31HQFR-m2cuub4Bu-24">
          <mxGeometry relative="1" as="geometry">
            <mxPoint x="685" y="352" as="targetPoint" />
          </mxGeometry>
        </mxCell>
        <mxCell id="mptU31HQFR-m2cuub4Bu-25" value="Probably some parquet files" style="text;html=1;strokeColor=none;fillColor=none;align=center;verticalAlign=middle;whiteSpace=wrap;rounded=0;" vertex="1" parent="mptU31HQFR-m2cuub4Bu-27">
          <mxGeometry x="625" y="70" width="90" height="30" as="geometry" />
        </mxCell>
        <mxCell id="mptU31HQFR-m2cuub4Bu-26" style="edgeStyle=orthogonalEdgeStyle;rounded=0;orthogonalLoop=1;jettySize=auto;html=1;exitX=1;exitY=0.5;exitDx=0;exitDy=0;entryX=0.5;entryY=0;entryDx=0;entryDy=0;entryPerimeter=0;dashed=1;endArrow=none;endFill=0;" edge="1" parent="mptU31HQFR-m2cuub4Bu-27" source="mptU31HQFR-m2cuub4Bu-25" target="mptU31HQFR-m2cuub4Bu-19">
          <mxGeometry relative="1" as="geometry" />
        </mxCell>
        <mxCell id="mptU31HQFR-m2cuub4Bu-42" value="&lt;h1&gt;All raw data must be archived&lt;/h1&gt;&lt;p&gt;We don&#39;t care how much space it takes, we keep all the data.&lt;/p&gt;&lt;p&gt;Having streams make it easy to pour all data into an archive for further processing or replays if needed. We just can&#39;t loose the data.&lt;/p&gt;&lt;p&gt;We do not need to archive intermediate representations&lt;/p&gt;" style="text;html=1;strokeColor=none;fillColor=none;spacing=5;spacingTop=-20;whiteSpace=wrap;overflow=hidden;rounded=0;" vertex="1" parent="mptU31HQFR-m2cuub4Bu-27">
          <mxGeometry x="70" y="80" width="360" height="160" as="geometry" />
        </mxCell>
        <mxCell id="mptU31HQFR-m2cuub4Bu-48" style="edgeStyle=orthogonalEdgeStyle;rounded=0;orthogonalLoop=1;jettySize=auto;html=1;exitX=0.5;exitY=0;exitDx=0;exitDy=0;exitPerimeter=0;dashed=1;" edge="1" parent="mptU31HQFR-m2cuub4Bu-27" source="mptU31HQFR-m2cuub4Bu-43">
          <mxGeometry relative="1" as="geometry">
            <mxPoint x="1320" y="352.5" as="targetPoint" />
          </mxGeometry>
        </mxCell>
        <mxCell id="mptU31HQFR-m2cuub4Bu-43" value="enriched / cleaned stream" style="shape=cylinder3;whiteSpace=wrap;html=1;boundedLbl=1;backgroundOutline=1;size=8.5;rotation=90;fillColor=#d5e8d4;horizontal=0;strokeColor=#82b366;" vertex="1" parent="mptU31HQFR-m2cuub4Bu-27">
          <mxGeometry x="1050" y="238" width="30" height="230" as="geometry" />
        </mxCell>
        <mxCell id="mptU31HQFR-m2cuub4Bu-44" style="edgeStyle=orthogonalEdgeStyle;rounded=0;orthogonalLoop=1;jettySize=auto;html=1;exitX=1;exitY=0.5;exitDx=0;exitDy=0;entryX=0.5;entryY=1;entryDx=0;entryDy=0;entryPerimeter=0;" edge="1" parent="mptU31HQFR-m2cuub4Bu-27" source="mptU31HQFR-m2cuub4Bu-24" target="mptU31HQFR-m2cuub4Bu-43">
          <mxGeometry relative="1" as="geometry" />
        </mxCell>
        <mxCell id="mptU31HQFR-m2cuub4Bu-47" style="edgeStyle=orthogonalEdgeStyle;rounded=0;orthogonalLoop=1;jettySize=auto;html=1;exitX=0.5;exitY=0;exitDx=0;exitDy=0;exitPerimeter=0;entryX=0;entryY=0.5;entryDx=0;entryDy=0;curved=1;" edge="1" parent="mptU31HQFR-m2cuub4Bu-27" source="mptU31HQFR-m2cuub4Bu-45" target="mptU31HQFR-m2cuub4Bu-24">
          <mxGeometry relative="1" as="geometry" />
        </mxCell>
        <mxCell id="mptU31HQFR-m2cuub4Bu-45" value="another stream" style="shape=cylinder3;whiteSpace=wrap;html=1;boundedLbl=1;backgroundOutline=1;size=8.5;rotation=90;fillColor=#d5e8d4;horizontal=0;strokeColor=#82b366;" vertex="1" parent="mptU31HQFR-m2cuub4Bu-27">
          <mxGeometry x="390" y="300" width="30" height="230" as="geometry" />
        </mxCell>
        <mxCell id="mptU31HQFR-m2cuub4Bu-46" style="edgeStyle=orthogonalEdgeStyle;rounded=0;orthogonalLoop=1;jettySize=auto;html=1;entryX=0.5;entryY=1;entryDx=0;entryDy=0;entryPerimeter=0;dashed=1;" edge="1" parent="mptU31HQFR-m2cuub4Bu-27" target="mptU31HQFR-m2cuub4Bu-45">
          <mxGeometry relative="1" as="geometry">
            <mxPoint x="160" y="415" as="sourcePoint" />
            <mxPoint x="280" y="414.78999999999996" as="targetPoint" />
          </mxGeometry>
        </mxCell>
        <mxCell id="mptU31HQFR-m2cuub4Bu-82" value="foldable block" style="swimlane;whiteSpace=wrap;html=1;" vertex="1" parent="1">
          <mxGeometry x="90" y="-100" width="140" height="90" as="geometry">
            <mxRectangle x="380" y="-230" width="80" height="30" as="alternateBounds" />
          </mxGeometry>
        </mxCell>
        <mxCell id="mptU31HQFR-m2cuub4Bu-84" style="edgeStyle=orthogonalEdgeStyle;rounded=0;orthogonalLoop=1;jettySize=auto;html=1;exitX=1;exitY=0.5;exitDx=0;exitDy=0;jumpStyle=arc;jumpSize=12;" edge="1" parent="mptU31HQFR-m2cuub4Bu-82">
          <mxGeometry relative="1" as="geometry">
            <mxPoint x="310" y="298.25000000000045" as="sourcePoint" />
          </mxGeometry>
        </mxCell>
        <mxCell id="mptU31HQFR-m2cuub4Bu-85" style="edgeStyle=orthogonalEdgeStyle;rounded=0;orthogonalLoop=1;jettySize=auto;html=1;exitX=1;exitY=0.5;exitDx=0;exitDy=0;exitPerimeter=0;jumpStyle=arc;jumpSize=12;" edge="1" parent="mptU31HQFR-m2cuub4Bu-82">
          <mxGeometry relative="1" as="geometry">
            <mxPoint x="470" y="298.25000000000045" as="sourcePoint" />
          </mxGeometry>
        </mxCell>
        <mxCell id="mptU31HQFR-m2cuub4Bu-102" value="Beefy API sources" style="swimlane;whiteSpace=wrap;html=1;" vertex="1" parent="1">
          <mxGeometry x="160" y="420" width="600" height="430" as="geometry">
            <mxRectangle x="380" y="-230" width="80" height="30" as="alternateBounds" />
          </mxGeometry>
        </mxCell>
        <mxCell id="mptU31HQFR-m2cuub4Bu-103" style="edgeStyle=orthogonalEdgeStyle;rounded=0;orthogonalLoop=1;jettySize=auto;html=1;exitX=1;exitY=0.5;exitDx=0;exitDy=0;jumpStyle=arc;jumpSize=12;" edge="1" parent="mptU31HQFR-m2cuub4Bu-102">
          <mxGeometry relative="1" as="geometry">
            <mxPoint x="310" y="298.25000000000045" as="sourcePoint" />
          </mxGeometry>
        </mxCell>
        <mxCell id="mptU31HQFR-m2cuub4Bu-104" style="edgeStyle=orthogonalEdgeStyle;rounded=0;orthogonalLoop=1;jettySize=auto;html=1;exitX=1;exitY=0.5;exitDx=0;exitDy=0;exitPerimeter=0;jumpStyle=arc;jumpSize=12;" edge="1" parent="mptU31HQFR-m2cuub4Bu-102">
          <mxGeometry relative="1" as="geometry">
            <mxPoint x="470" y="298.25000000000045" as="sourcePoint" />
          </mxGeometry>
        </mxCell>
        <mxCell id="mptU31HQFR-m2cuub4Bu-9" value="Boosts Source:&amp;nbsp;/boosts&lt;br&gt;func_key: chain, contract_address" style="rounded=1;whiteSpace=wrap;html=1;fontSize=12;glass=0;strokeWidth=1;shadow=0;fillColor=#f8cecc;strokeColor=#b85450;" vertex="1" parent="mptU31HQFR-m2cuub4Bu-102">
          <mxGeometry x="40" y="90" width="170" height="50" as="geometry" />
        </mxCell>
        <mxCell id="mptU31HQFR-m2cuub4Bu-114" style="edgeStyle=orthogonalEdgeStyle;rounded=0;orthogonalLoop=1;jettySize=auto;html=1;exitX=1;exitY=0.5;exitDx=0;exitDy=0;" edge="1" parent="mptU31HQFR-m2cuub4Bu-102" source="mptU31HQFR-m2cuub4Bu-10" target="mptU31HQFR-m2cuub4Bu-113">
          <mxGeometry relative="1" as="geometry" />
        </mxCell>
        <mxCell id="mptU31HQFR-m2cuub4Bu-10" value="Vaults Source:&amp;nbsp;/vaults&lt;br style=&quot;border-color: var(--border-color);&quot;&gt;func_key: chain, contract_address" style="rounded=1;whiteSpace=wrap;html=1;fontSize=12;glass=0;strokeWidth=1;shadow=0;fillColor=#f8cecc;strokeColor=#b85450;" vertex="1" parent="mptU31HQFR-m2cuub4Bu-102">
          <mxGeometry x="40" y="150" width="170" height="50" as="geometry" />
        </mxCell>
        <mxCell id="mptU31HQFR-m2cuub4Bu-52" value="boost updates" style="shape=cylinder3;whiteSpace=wrap;html=1;boundedLbl=1;backgroundOutline=1;size=8.5;rotation=90;fillColor=#ffe6cc;horizontal=0;strokeColor=#d79b00;" vertex="1" parent="mptU31HQFR-m2cuub4Bu-102">
          <mxGeometry x="440" y="70" width="30" height="90" as="geometry" />
        </mxCell>
        <mxCell id="mptU31HQFR-m2cuub4Bu-56" value="Boosts Source:&amp;nbsp;/apy&lt;br style=&quot;border-color: var(--border-color);&quot;&gt;func_key: vault-id, now()" style="rounded=1;whiteSpace=wrap;html=1;fontSize=12;glass=0;strokeWidth=1;shadow=0;fillColor=#f8cecc;strokeColor=#b85450;" vertex="1" parent="mptU31HQFR-m2cuub4Bu-102">
          <mxGeometry x="40" y="260" width="170" height="50" as="geometry" />
        </mxCell>
        <mxCell id="mptU31HQFR-m2cuub4Bu-57" value="Vaults Source:&amp;nbsp;/tvl&lt;br&gt;func_key: vault-id, now()" style="rounded=1;whiteSpace=wrap;html=1;fontSize=12;glass=0;strokeWidth=1;shadow=0;fillColor=#f8cecc;strokeColor=#b85450;" vertex="1" parent="mptU31HQFR-m2cuub4Bu-102">
          <mxGeometry x="40" y="320" width="170" height="50" as="geometry" />
        </mxCell>
        <mxCell id="mptU31HQFR-m2cuub4Bu-60" value="tvl snaps" style="shape=cylinder3;whiteSpace=wrap;html=1;boundedLbl=1;backgroundOutline=1;size=8.5;rotation=90;fillColor=#ffe6cc;horizontal=0;strokeColor=#d79b00;" vertex="1" parent="mptU31HQFR-m2cuub4Bu-102">
          <mxGeometry x="300" y="300" width="30" height="90" as="geometry" />
        </mxCell>
        <mxCell id="mptU31HQFR-m2cuub4Bu-58" value="apy snaps" style="shape=cylinder3;whiteSpace=wrap;html=1;boundedLbl=1;backgroundOutline=1;size=8.5;rotation=90;fillColor=#ffe6cc;horizontal=0;strokeColor=#d79b00;" vertex="1" parent="mptU31HQFR-m2cuub4Bu-102">
          <mxGeometry x="300" y="240" width="30" height="90" as="geometry" />
        </mxCell>
        <mxCell id="mptU31HQFR-m2cuub4Bu-61" style="edgeStyle=orthogonalEdgeStyle;rounded=0;orthogonalLoop=1;jettySize=auto;html=1;exitX=1;exitY=0.5;exitDx=0;exitDy=0;entryX=0.5;entryY=1;entryDx=0;entryDy=0;entryPerimeter=0;" edge="1" parent="mptU31HQFR-m2cuub4Bu-102" source="mptU31HQFR-m2cuub4Bu-57" target="mptU31HQFR-m2cuub4Bu-60">
          <mxGeometry relative="1" as="geometry" />
        </mxCell>
        <mxCell id="mptU31HQFR-m2cuub4Bu-59" style="edgeStyle=orthogonalEdgeStyle;rounded=0;orthogonalLoop=1;jettySize=auto;html=1;exitX=1;exitY=0.5;exitDx=0;exitDy=0;entryX=0.5;entryY=1;entryDx=0;entryDy=0;entryPerimeter=0;" edge="1" parent="mptU31HQFR-m2cuub4Bu-102" source="mptU31HQFR-m2cuub4Bu-56" target="mptU31HQFR-m2cuub4Bu-58">
          <mxGeometry relative="1" as="geometry" />
        </mxCell>
        <mxCell id="mptU31HQFR-m2cuub4Bu-105" value="Snapshot every ~15min" style="text;html=1;strokeColor=none;fillColor=none;align=left;verticalAlign=middle;whiteSpace=wrap;rounded=0;" vertex="1" parent="mptU31HQFR-m2cuub4Bu-102">
          <mxGeometry x="40" y="230" width="250" height="30" as="geometry" />
        </mxCell>
        <mxCell id="mptU31HQFR-m2cuub4Bu-106" value="Change capture every 15min" style="text;html=1;strokeColor=none;fillColor=none;align=left;verticalAlign=middle;whiteSpace=wrap;rounded=0;" vertex="1" parent="mptU31HQFR-m2cuub4Bu-102">
          <mxGeometry x="40" y="60" width="250" height="30" as="geometry" />
        </mxCell>
        <mxCell id="mptU31HQFR-m2cuub4Bu-109" value="snap to cdc" style="rounded=1;whiteSpace=wrap;html=1;" vertex="1" parent="mptU31HQFR-m2cuub4Bu-102">
          <mxGeometry x="265" y="100" width="90" height="30" as="geometry" />
        </mxCell>
        <mxCell id="mptU31HQFR-m2cuub4Bu-53" style="edgeStyle=orthogonalEdgeStyle;rounded=0;orthogonalLoop=1;jettySize=auto;html=1;exitX=1;exitY=0.5;exitDx=0;exitDy=0;entryX=0;entryY=0.5;entryDx=0;entryDy=0;" edge="1" parent="mptU31HQFR-m2cuub4Bu-102" source="mptU31HQFR-m2cuub4Bu-9" target="mptU31HQFR-m2cuub4Bu-109">
          <mxGeometry relative="1" as="geometry" />
        </mxCell>
        <mxCell id="mptU31HQFR-m2cuub4Bu-110" style="edgeStyle=orthogonalEdgeStyle;rounded=0;orthogonalLoop=1;jettySize=auto;html=1;exitX=1;exitY=0.5;exitDx=0;exitDy=0;entryX=0.5;entryY=1;entryDx=0;entryDy=0;entryPerimeter=0;" edge="1" parent="mptU31HQFR-m2cuub4Bu-102" source="mptU31HQFR-m2cuub4Bu-109" target="mptU31HQFR-m2cuub4Bu-52">
          <mxGeometry relative="1" as="geometry" />
        </mxCell>
        <mxCell id="mptU31HQFR-m2cuub4Bu-112" value="vault updates" style="shape=cylinder3;whiteSpace=wrap;html=1;boundedLbl=1;backgroundOutline=1;size=8.5;rotation=90;fillColor=#ffe6cc;horizontal=0;strokeColor=#d79b00;" vertex="1" parent="mptU31HQFR-m2cuub4Bu-102">
          <mxGeometry x="440" y="130" width="30" height="90" as="geometry" />
        </mxCell>
        <mxCell id="mptU31HQFR-m2cuub4Bu-115" style="edgeStyle=orthogonalEdgeStyle;rounded=0;orthogonalLoop=1;jettySize=auto;html=1;exitX=1;exitY=0.5;exitDx=0;exitDy=0;" edge="1" parent="mptU31HQFR-m2cuub4Bu-102" source="mptU31HQFR-m2cuub4Bu-113" target="mptU31HQFR-m2cuub4Bu-112">
          <mxGeometry relative="1" as="geometry" />
        </mxCell>
        <mxCell id="mptU31HQFR-m2cuub4Bu-113" value="snap to cdc" style="rounded=1;whiteSpace=wrap;html=1;" vertex="1" parent="mptU31HQFR-m2cuub4Bu-102">
          <mxGeometry x="265" y="160" width="90" height="30" as="geometry" />
        </mxCell>
      </root>
    </mxGraphModel>
  </diagram>
</mxfile>
